<svg xmlns="http://www.w3.org/2000/svg" xmlns:xlink="http://www.w3.org/1999/xlink" width="320" height="271" viewBox="0 0 320 271">
    <defs>
        <path id="b" d="M0 229V0h299v229H0z"/>
        <filter id="a" width="124.1%" height="131.4%" x="-12%" y="-11.8%" filterUnits="objectBoundingBox">
            <feOffset dy="9" in="SourceAlpha" result="shadowOffsetOuter1"/>
            <feGaussianBlur in="shadowOffsetOuter1" result="shadowBlurOuter1" stdDeviation="10.5"/>
            <feColorMatrix in="shadowBlurOuter1" values="0 0 0 0 0 0 0 0 0 0 0 0 0 0 0 0 0 0 0.08 0"/>
        </filter>
        <path id="c" d="M.26.263h18.504v31.714H.261z"/>
    </defs>
    <g fill="none" fill-rule="evenodd">
        <g transform="translate(11 12)">
            <use fill="#000" filter="url(#a)" xlink:href="#b"/>
            <use fill="#FFF" xlink:href="#b"/>
        </g>
        <path fill="#E6E6E6" d="M310 23H11v-8.67c0-1.286 1.058-2.33 2.363-2.33h294.273c1.306 0 2.364 1.044 2.364 2.33V23z"/>
        <path fill="#F1C40F" d="M24 19a2 2 0 1 1 0-4 2 2 0 0 1 0 4z"/>
        <path fill="#E24848" d="M17 19a2 2 0 1 1 0-4 2 2 0 0 1 0 4z"/>
        <path fill="#2ECC71" d="M32 19a2 2 0 1 1 0-4 2 2 0 0 1 0 4z"/>
        <path fill="#343434" d="M310 237.896c0 1.547-1.174 3.104-2.622 3.104H13.622c-1.448 0-2.622-1.557-2.622-3.104V23h299v214.896z"/>
        <path fill="#FFF" d="M123.15 125.356l-4.007 2.307c-.75-1.263-1.464-2.087-2.143-2.472-.708-.44-1.62-.66-2.737-.66-1.371 0-2.51.379-3.414 1.133-.906.742-1.359 1.676-1.359 2.803 0 1.551 1.189 2.801 3.565 3.748l3.265 1.298c2.66 1.044 4.603 2.317 5.834 3.82 1.23 1.505 1.846 3.348 1.846 5.532 0 2.925-1.004 5.343-3.012 7.252-2.023 1.922-4.533 2.883-7.531 2.883-2.843 0-5.19-.817-7.042-2.452-1.824-1.633-2.963-3.934-3.415-6.9l5.005-1.072c.226 1.868.624 3.16 1.189 3.874 1.018 1.373 2.502 2.06 4.455 2.06 1.54 0 2.82-.502 3.839-1.504 1.017-1.002 1.527-2.274 1.527-3.811 0-.619-.089-1.185-.266-1.7a4.275 4.275 0 0 0-.827-1.421c-.374-.433-.859-.838-1.453-1.215a14.118 14.118 0 0 0-2.121-1.082l-3.16-1.277c-4.483-1.84-6.724-4.533-6.724-8.075 0-2.39.94-4.387 2.821-5.995 1.88-1.62 4.221-2.43 7.02-2.43 3.776 0 6.725 1.785 8.845 5.356M142.86 124.397V151h-4.7v-26.603H131V120h19v4.397zM160.805 136.428c0 3.518 1.172 6.41 3.516 8.677 2.331 2.269 5.024 3.402 8.077 3.402 3.312 0 6.107-1.155 8.382-3.462 2.277-2.338 3.416-5.182 3.416-8.535 0-3.394-1.125-6.238-3.375-8.533-2.235-2.309-5.002-3.464-8.3-3.464-3.286 0-6.06 1.155-8.322 3.464-2.263 2.28-3.394 5.097-3.394 8.45m-4.805-.06c0-4.48 1.63-8.329 4.887-11.544 3.244-3.216 7.142-4.823 11.695-4.823 4.498 0 8.355 1.621 11.573 4.864 3.23 3.243 4.845 7.14 4.845 11.687 0 4.576-1.622 8.46-4.866 11.647-3.258 3.203-7.19 4.802-11.798 4.802-4.076 0-7.735-1.422-10.98-4.267-3.57-3.145-5.356-7.268-5.356-12.367M204.889 134.235h1.552c4.629 0 6.944-1.693 6.944-5.08 0-3.171-2.253-4.758-6.755-4.758h-1.741v9.838zm6.083 3.554L221 151h-5.98l-9.25-12.69h-.881V151H200v-31h5.728c4.279 0 7.37.77 9.272 2.309 2.097 1.713 3.147 3.975 3.147 6.786 0 2.195-.658 4.083-1.972 5.662-1.315 1.58-3.05 2.59-5.203 3.032z"/>
        <g transform="translate(230 121)">
            <mask id="d" fill="#fff">
                <use xlink:href="#c"/>
            </mask>
            <path fill="#FFF" d="M18.764 4.761H5.321v7.62h13.052v4.499H5.321v10.599h13.443v4.498H.261V.263h18.503z" mask="url(#d)"/>
        </g>
        <path fill="#FFF" d="M87.967 130L95 120h-6.026L85 125.85zM84.189 134.798v-.001l-2.48-4.314-.011.018-.237-.447L76.13 120h-5l8.02 14.798L70 151h4.98l6.643-11.865L88.076 151H93z"/>
    </g>
</svg>
