<svg xmlns="http://www.w3.org/2000/svg" xmlns:xlink="http://www.w3.org/1999/xlink" width="20" height="21" viewBox="0 0 20 21">
    <defs>
        <path id="a" d="M0 .064h19.939v20.784H0z"/>
    </defs>
    <g fill="none" fill-rule="evenodd">
        <path fill="#FFF" d="M14.45 6.932c-.522 0-.945-.441-.945-.984 0-.544.423-.984.944-.984.522 0 .944.44.944.984 0 .543-.422.984-.944.984m-4.48 8.355c-2.508 0-4.549-2.127-4.549-4.743 0-2.615 2.04-4.742 4.55-4.742 2.508 0 4.549 2.127 4.549 4.742 0 2.616-2.04 4.743-4.55 4.743m3.175-11.803h-6.35c-2.192 0-3.975 1.859-3.975 4.144v5.833c0 2.285 1.783 4.144 3.975 4.144h6.35c2.192 0 3.975-1.86 3.975-4.144V7.628c0-2.285-1.783-4.144-3.975-4.144"/>
        <path fill="#FFF" d="M9.97 6.986c-1.883 0-3.414 1.596-3.414 3.558 0 1.962 1.53 3.559 3.413 3.559 1.883 0 3.414-1.597 3.414-3.559 0-1.962-1.531-3.558-3.414-3.558"/>
        <g transform="translate(0 .089)">
            <mask id="b" fill="#fff">
                <use xlink:href="#a"/>
            </mask>
            <path fill="#FFF" d="M18.255 13.372c0 2.938-2.293 5.328-5.11 5.328h-6.35c-2.819 0-5.112-2.39-5.112-5.328V7.54c0-2.937 2.293-5.327 5.111-5.327h6.35c2.818 0 5.111 2.39 5.111 5.327v5.833zM16.532.064H3.407C1.525.064 0 1.654 0 3.615v13.681c0 1.962 1.525 3.552 3.407 3.552h13.125c1.882 0 3.407-1.59 3.407-3.552V3.616c0-1.962-1.525-3.552-3.407-3.552z" mask="url(#b)"/>
        </g>
    </g>
</svg>
