<svg xmlns="http://www.w3.org/2000/svg" xmlns:xlink="http://www.w3.org/1999/xlink" width="140" height="29" viewBox="0 0 140 29">
    <defs>
        <path id="a" d="M.083.464h15.758v21.794H.083z"/>
        <path id="c" d="M0 29h140V0H0z"/>
    </defs>
    <g fill="none" fill-rule="evenodd">
        <g transform="translate(21 6)">
            <mask id="b" fill="#fff">
                <use xlink:href="#a"/>
            </mask>
            <path fill="#FEFEFE" d="M11.273 7.912c0-2.084-1.502-3.371-3.25-3.371s-3.28 1.287-3.28 3.371c0 2.085 1.41 3.372 3.28 3.372 1.901 0 3.25-1.287 3.25-3.372zm-7.082 7.756c.307 1.472 1.534 2.544 3.28 2.544 2.33 0 3.771-1.134 3.771-3.894v-.704c-.552.828-1.87 1.716-4.077 1.716-4.046 0-7.082-3.187-7.082-7.418C.083 3.897 2.996.464 7.165.464c2.484 0 3.802 1.103 4.23 1.9V.74h4.446v13.334c0 4.383-2.452 8.184-8.155 8.184-4.384 0-7.173-2.697-7.603-5.425l4.108-1.165z" mask="url(#b)"/>
        </g>
        <path fill="#FEFEFE" d="M50.563 13.158c-.06-1.158-.845-2.56-3.018-2.56-1.931 0-2.898 1.433-2.987 2.56h6.005zM42.022 5.6L45.432 1h4.316l3.44 4.601h-3.5l-2.143-2.164-2.112 2.164h-3.411zm12.706 12.584C54.004 20.806 51.62 23 47.816 23 43.682 23 40 20.014 40 14.925c0-4.875 3.591-7.983 7.485-7.983 4.648 0 7.515 2.895 7.515 7.77 0 .64-.06 1.34-.091 1.432H44.467c.09 1.706 1.63 2.925 3.41 2.925 1.66 0 2.596-.792 3.018-1.98l3.833 1.096zM61.883 23H57V7.408h4.722v1.788C62.589 7.722 64.548 7 66.187 7 70.2 7 72 9.793 72 13.212V23h-4.882v-8.972c0-1.538-.835-2.698-2.602-2.698-1.606 0-2.633 1.16-2.633 2.729V23zM77.494 15.015c0 2.399 1.577 3.734 3.453 3.734 1.755 0 2.738-1.123 3.065-2.247L88 17.747C87.345 20.388 84.905 23 80.947 23 76.54 23 73 19.69 73 15.015 73 10.309 76.452 7 80.797 7c4.078 0 6.459 2.55 7.114 5.252l-4.048 1.245c-.328-1.154-1.22-2.247-2.976-2.247-1.875 0-3.393 1.336-3.393 3.765"/>
        <mask id="d" fill="#fff">
            <use xlink:href="#c"/>
        </mask>
        <path fill="#FEFEFE" d="M90.438 23h5.124V7.51h-5.124V23zm2.528-23C94.651 0 96 1.246 96 2.774c0 1.526-1.349 2.773-3.034 2.773C91.35 5.547 90 4.3 90 2.774 90 1.246 91.349 0 92.966 0zM105.251 16.642v-.668l-2.898.456c-.987.152-1.727.608-1.727 1.672 0 .792.524 1.552 1.818 1.552 1.389 0 2.807-.67 2.807-3.012m-4.718-2.798l3.608-.547c.833-.122 1.11-.517 1.11-1.035 0-.882-.771-1.642-2.251-1.642-1.634 0-2.529 1.095-2.621 2.22l-4.07-.821C96.493 9.859 98.529 7 103.03 7c4.965 0 6.784 2.737 6.784 5.84v7.392c0 1.186.154 2.19.185 2.342h-4.224c-.032-.121-.155-.67-.155-1.703-.802 1.277-2.282 2.129-4.317 2.129C97.944 23 96 20.81 96 18.407c0-2.677 2.004-4.198 4.533-4.563" mask="url(#d)"/>
        <path fill="#C7D300" d="M135.471 22V8.995H131V5.759c2.798-.03 4.789-1.726 5.106-3.759H140v20h-4.529z" mask="url(#d)"/>
        <path fill="#FEFEFE" d="M13.866 1H8.227L0 23h5.115l.947-2.692v-.001l.625-1.775h.007l2.167-6.09 2.109-5.98 2.619 7.601H9.476L7.96 18.532h7.17L16.7 23H22z" mask="url(#d)"/>
        <path fill="#C7D300" d="M121.969 18.997h-3.118V5.065h2.645c1.953 0 2.93.93 2.93 2.358 0 1.49-1.134 2.39-2.867 2.39h-1.538v4.033h1.948c1.952 0 3.086 1.056 3.086 2.576 0 1.582-1.165 2.575-3.086 2.575m4.063-7.385c1.826-.59 3.275-2.452 3.275-4.717 0-3.381-2.55-5.895-6.96-5.895H114v22h9.008c4.22 0 6.992-2.638 6.992-6.237 0-2.854-1.953-4.686-3.968-5.151" mask="url(#d)"/>
    </g>
</svg>
