<svg xmlns="http://www.w3.org/2000/svg" width="93" height="69" viewBox="0 0 93 69">
    <g fill="none" fill-rule="evenodd">
        <path stroke="#909090" stroke-width="3" d="M81.732 2H11.268C6.15 2 2 6.132 2 11.229v33.953c0 5.097 4.15 9.229 9.268 9.229h17.236c1.047 0 2.06.372 2.855 1.05L43.7 65.97a4.324 4.324 0 0 0 5.602 0l12.34-10.51a4.404 4.404 0 0 1 2.855-1.05h17.236c5.118 0 9.268-4.13 9.268-9.228V11.23C91 6.132 86.85 2 81.732 2z"/>
        <path fill="#909090" d="M67 40h-2.767V25.94c0-1.431.046-2.786.137-4.065-.24.232-.507.474-.803.727-.296.254-1.65 1.328-4.064 3.223L58 23.94 64.61 19H67v21z"/>
        <path stroke="#BFD730" stroke-width="3" d="M38 41l-11.721-8.913c-1.292-.982-2.328-2.298-2.852-3.843C21.275 21.9 27.61 14.579 34.64 17.775c.163.074.325.153.486.237L38 19.509l2.874-1.497c.161-.084.323-.163.486-.237 7.03-3.196 13.365 4.125 11.213 10.469-.524 1.545-1.56 2.86-2.852 3.843L38 41z"/>
    </g>
</svg>
