<svg xmlns="http://www.w3.org/2000/svg" xmlns:xlink="http://www.w3.org/1999/xlink" width="40" height="41" viewBox="0 0 40 41">
    <defs>
        <path id="a" d="M0 .156h39.845v40.04H0z"/>
    </defs>
    <g fill="none" fill-rule="evenodd">
        <g>
            <mask id="b" fill="#fff">
                <use xlink:href="#a"/>
            </mask>
            <path fill="#FFF" d="M19.922 37.218c-3.167 0-6.272-.902-8.978-2.606l-.6-.378-4.233 1.465.871-4.513-.416-.535a16.92 16.92 0 0 1-3.602-10.475c0-9.397 7.607-17.04 16.958-17.04 9.351 0 16.959 7.643 16.959 17.04 0 9.397-7.608 17.042-16.959 17.042m0-37.062C8.937.156 0 9.136 0 20.176c0 4.265 1.318 8.316 3.819 11.76l-1.595 8.26 7.762-2.687a19.764 19.764 0 0 0 9.936 2.687c10.986 0 19.923-8.981 19.923-20.02 0-11.04-8.937-20.02-19.923-20.02" mask="url(#b)"/>
        </g>
        <path fill="#FFF" d="M30.995 23.31s-3.46-1.594-4.258-1.93c-.8-.338-1.282.236-1.282.236s-1.498 1.73-1.774 1.985c-.276.256-.71.201-.71.201s-3.034-1.041-4.613-2.502c-1.583-1.461-2.347-2.6-2.84-3.22-.493-.619 0-1.202 0-1.202s.886-.82 1.28-1.385c.395-.564.139-1.148.139-1.148s-1.499-3.39-1.834-3.972c-.335-.583-1.578-.583-2.544-.474-.965.11-2.15 2.023-2.15 2.023-.729.99-.807 2.077-.216 4.482.592 2.405 3.096 5.047 5.915 7.654 2.82 2.604 8.11 4.275 10.333 4.275 2.221 0 3.7-1.44 4.206-1.908.506-.466.753-1.849.753-2.414 0-.564-.405-.7-.405-.7"/>
    </g>
</svg>
